HIERARCHY
ROOT Hips
{
    OFFSET 0.000000 0.000000 0.000000
    CHANNELS 6 Xposition Yposition Zposition Zrotation Xrotation Yrotation
    JOINT Spine
    {
        OFFSET -0.000002 8.335697 -0.000002
        CHANNELS 3 Zrotation Xrotation Yrotation
        JOINT Spine1
        {
            OFFSET 0.000001 24.027636 0.000014
            CHANNELS 3 Zrotation Xrotation Yrotation
            JOINT Neck
            {
                OFFSET -0.000000 26.824327 -0.000007
                CHANNELS 3 Zrotation Xrotation Yrotation
                JOINT Head
                {
                    OFFSET -0.000001 16.525597 2.035175
                    CHANNELS 3 Zrotation Xrotation Yrotation
                    End Site
                    {
                        OFFSET 0.000000 20.351660 0.000000
                    }
                }
            }
            JOINT LeftShoulder
            {
                OFFSET 4.036567 20.304844 -0.371918
                CHANNELS 3 Zrotation Xrotation Yrotation
                JOINT LeftArm
                {
                    OFFSET 12.502549 0.000004 0.000011
                    CHANNELS 3 Zrotation Xrotation Yrotation
                    JOINT LeftForeArm
                    {
                        OFFSET 31.806904 -0.000006 -0.000010
                        CHANNELS 3 Zrotation Xrotation Yrotation
                        JOINT LeftHand
                        {
                            OFFSET 24.843225 0.000003 -0.000003
                            CHANNELS 3 Zrotation Xrotation Yrotation
                            JOINT LeftHandThumb1
                            {
                                OFFSET 2.126757 -2.416759 3.383461
                                CHANNELS 3 Zrotation Xrotation Yrotation
                                JOINT LeftHandThumb2
                                {
                                    OFFSET 3.212126 -0.000001 -0.000004
                                    CHANNELS 3 Zrotation Xrotation Yrotation
                                    JOINT LeftHandThumb3
                                    {
                                        OFFSET 2.745434 0.000001 0.000000
                                        CHANNELS 3 Zrotation Xrotation Yrotation
                                        End Site
                                        {
                                            OFFSET 2.793713 0.000000 0.000000
                                        }
                                    }
                                }
                            }
                            JOINT LeftHandIndex1
                            {
                                OFFSET 8.700329 0.000001 3.383455
                                CHANNELS 3 Zrotation Xrotation Yrotation
                                JOINT LeftHandIndex2
                                {
                                    OFFSET 4.833525 0.000001 0.000006
                                    CHANNELS 3 Zrotation Xrotation Yrotation
                                    JOINT LeftHandIndex3
                                    {
                                        OFFSET 2.416755 0.000002 -0.000009
                                        CHANNELS 3 Zrotation Xrotation Yrotation
                                        End Site
                                        {
                                            OFFSET 2.459254 0.000000 0.000000
                                        }
                                    }
                                }
                            }
                            JOINT LeftHandMiddle1
                            {
                                OFFSET 8.700341 -0.000002 1.121385
                                CHANNELS 3 Zrotation Xrotation Yrotation
                                JOINT LeftHandMiddle2
                                {
                                    OFFSET 5.316873 -0.000000 0.000008
                                    CHANNELS 3 Zrotation Xrotation Yrotation
                                    JOINT LeftHandMiddle3
                                    {
                                        OFFSET 2.900104 0.000000 -0.000006
                                        CHANNELS 3 Zrotation Xrotation Yrotation
                                        End Site
                                        {
                                            OFFSET 2.951103 0.000000 0.000000
                                        }
                                    }
                                }
                            }
                            JOINT LeftHandRing1
                            {
                                OFFSET 8.216990 -0.000000 -1.121378
                                CHANNELS 3 Zrotation Xrotation Yrotation
                                JOINT LeftHandRing2
                                {
                                    OFFSET 4.833525 -0.000003 0.000005
                                    CHANNELS 3 Zrotation Xrotation Yrotation
                                    JOINT LeftHandRing3
                                    {
                                        OFFSET 2.416755 0.000000 -0.000009
                                        CHANNELS 3 Zrotation Xrotation Yrotation
                                        End Site
                                        {
                                            OFFSET 2.459254 0.000000 0.000000
                                        }
                                    }
                                }
                            }
                            JOINT LeftHandPinky1
                            {
                                OFFSET 7.733631 -0.000001 -3.383462
                                CHANNELS 3 Zrotation Xrotation Yrotation
                                JOINT LeftHandPinky2
                                {
                                    OFFSET 3.866827 -0.000004 0.000000
                                    CHANNELS 3 Zrotation Xrotation Yrotation
                                    JOINT LeftHandPinky3
                                    {
                                        OFFSET 1.933400 0.000000 -0.000000
                                        CHANNELS 3 Zrotation Xrotation Yrotation
                                        End Site
                                        {
                                            OFFSET 1.967405 0.000000 0.000000
                                        }
                                    }
                                }
                            }
                        }
                    }
                }
            }
            JOINT RightShoulder
            {
                OFFSET -4.036570 20.304852 -0.371915
                CHANNELS 3 Zrotation Xrotation Yrotation
                JOINT RightArm
                {
                    OFFSET -12.502551 0.000006 0.000004
                    CHANNELS 3 Zrotation Xrotation Yrotation
                    JOINT RightForeArm
                    {
                        OFFSET -31.806908 -0.000003 0.000005
                        CHANNELS 3 Zrotation Xrotation Yrotation
                        JOINT RightHand
                        {
                            OFFSET -24.843227 0.000002 -0.000003
                            CHANNELS 3 Zrotation Xrotation Yrotation
                            JOINT RightHandThumb1
                            {
                                OFFSET -2.126746 -2.416764 3.383457
                                CHANNELS 3 Zrotation Xrotation Yrotation
                                JOINT RightHandThumb2
                                {
                                    OFFSET -3.212137 -0.000002 0.000000
                                    CHANNELS 3 Zrotation Xrotation Yrotation
                                    JOINT RightHandThumb3
                                    {
                                        OFFSET -2.745448 0.000003 -0.000001
                                        CHANNELS 3 Zrotation Xrotation Yrotation
                                        End Site
                                        {
                                            OFFSET -2.793713 0.000000 0.000000
                                        }
                                    }
                                }
                            }
                            JOINT RightHandIndex1
                            {
                                OFFSET -8.700342 0.000007 3.383466
                                CHANNELS 3 Zrotation Xrotation Yrotation
                                JOINT RightHandIndex2
                                {
                                    OFFSET -4.833519 0.000002 0.000000
                                    CHANNELS 3 Zrotation Xrotation Yrotation
                                    JOINT RightHandIndex3
                                    {
                                        OFFSET -2.416759 0.000001 0.000001
                                        CHANNELS 3 Zrotation Xrotation Yrotation
                                        End Site
                                        {
                                            OFFSET -2.459254 0.000000 0.000000
                                        }
                                    }
                                }
                            }
                            JOINT RightHandMiddle1
                            {
                                OFFSET -8.700332 0.000001 1.121374
                                CHANNELS 3 Zrotation Xrotation Yrotation
                                JOINT RightHandMiddle2
                                {
                                    OFFSET -5.316862 -0.000001 -0.000001
                                    CHANNELS 3 Zrotation Xrotation Yrotation
                                    JOINT RightHandMiddle3
                                    {
                                        OFFSET -2.900102 -0.000002 -0.000001
                                        CHANNELS 3 Zrotation Xrotation Yrotation
                                        End Site
                                        {
                                            OFFSET -2.951103 0.000000 0.000000
                                        }
                                    }
                                }
                            }
                            JOINT RightHandRing1
                            {
                                OFFSET -8.216985 0.000006 -1.121373
                                CHANNELS 3 Zrotation Xrotation Yrotation
                                JOINT RightHandRing2
                                {
                                    OFFSET -4.833519 0.000002 0.000001
                                    CHANNELS 3 Zrotation Xrotation Yrotation
                                    JOINT RightHandRing3
                                    {
                                        OFFSET -2.416759 0.000000 0.000001
                                        CHANNELS 3 Zrotation Xrotation Yrotation
                                        End Site
                                        {
                                            OFFSET -2.459254 0.000000 0.000000
                                        }
                                    }
                                }
                            }
                            JOINT RightHandPinky1
                            {
                                OFFSET -7.733632 0.000004 -3.383462
                                CHANNELS 3 Zrotation Xrotation Yrotation
                                JOINT RightHandPinky2
                                {
                                    OFFSET -3.866814 -0.000003 -0.000004
                                    CHANNELS 3 Zrotation Xrotation Yrotation
                                    JOINT RightHandPinky3
                                    {
                                        OFFSET -1.933417 0.000003 0.000003
                                        CHANNELS 3 Zrotation Xrotation Yrotation
                                        End Site
                                        {
                                            OFFSET -1.967405 0.000000 0.000000
                                        }
                                    }
                                }
                            }
                        }
                    }
                }
            }
        }
    }
    JOINT LeftUpLeg
    {
        OFFSET 10.175828 -0.000002 0.000008
        CHANNELS 3 Zrotation Xrotation Yrotation
        JOINT LeftLeg
        {
            OFFSET 0.000001 -42.882954 0.000001
            CHANNELS 3 Zrotation Xrotation Yrotation
            JOINT LeftFoot
            {
                OFFSET 0.000002 -39.006771 0.000003
                CHANNELS 3 Zrotation Xrotation Yrotation
                JOINT LeftToeBase
                {
                    OFFSET -0.000001 -6.614286 15.263732
                    CHANNELS 3 Zrotation Xrotation Yrotation
                    End Site
                    {
                        OFFSET 0.000000 0.000000 4.070332
                    }
                }
            }
        }
    }
    JOINT RightUpLeg
    {
        OFFSET -10.175828 0.000002 -0.000008
        CHANNELS 3 Zrotation Xrotation Yrotation
        JOINT RightLeg
        {
            OFFSET 0.000004 -42.882942 0.000011
            CHANNELS 3 Zrotation Xrotation Yrotation
            JOINT RightFoot
            {
                OFFSET 0.000001 -39.006771 0.000000
                CHANNELS 3 Zrotation Xrotation Yrotation
                JOINT RightToeBase
                {
                    OFFSET 0.000003 -6.614286 15.263741
                    CHANNELS 3 Zrotation Xrotation Yrotation
                    End Site
                    {
                        OFFSET 0.000000 0.000000 4.070332
                    }
                }
            }
        }
    }
}
MOTION
Frames:    4
Frame Time:    0.002778
-14.316527    90.294075    221.501587    15.069209    5.108777    9.332393    0.606550    5.470381    7.357606    3.032736    5.463072    7.126438    2.918258    -3.402919    -4.380847    2.918262    -3.402914    -4.380841    -4.642766    -1.279405    -0.115813    -54.425480    15.191048    -22.202805    -11.929103    5.015129    -137.838470    9.319181    4.346924    25.448397    47.448212    38.866428    -34.355026    -35.000008    0.000001    -0.000002    -0.000000    0.000000    -0.000000    -0.000000    10.000001    0.000001    -0.000000    0.000000    -0.000000    -0.000000    0.000000    -0.000000    -0.000000    0.000000    -0.000000    -0.000000    0.000000    -0.000000    -0.000000    0.000000    -0.000000    -0.000000    0.000000    -0.000000    -0.000000    0.000000    -0.000000    -0.000000    0.000000    -0.000000    0.000005    -9.999999    0.000015    -0.000000    0.000000    -0.000000    -0.000000    0.000000    -0.000000    -3.691756    -0.354431    2.643051    -3.175894    -25.823500    37.985172    -13.750319    -14.863282    43.455109    -6.238708    2.154048    -19.066563    -47.448212    38.866440    34.355026    34.999996    0.000000    0.000007    -0.000000    0.000000    -0.000000    0.000000    10.000001    -0.000004    -0.000000    0.000000    -0.000000    -0.000000    0.000000    -0.000000    -0.000000    0.000000    -0.000000    -0.000000    0.000000    -0.000000    -0.000000    0.000000    -0.000000    -0.000000    0.000000    -0.000000    -0.000000    0.000000    -0.000000    -0.000000    0.000000    -0.000000    0.000002    -10.000001    -0.000000    -0.000000    0.000000    -0.000000    -0.000000    0.000000    -0.000000    2.727486    -18.904505    -2.391165    0.000000    27.549509    0.000001    -23.979649    -8.125727    1.066221    0.000001    -0.954724    -0.000000    -23.418539    -27.060741    -11.241449    -0.000000    58.584049    0.000000    9.592037    -31.273104    -21.683535    0.000000    -1.030070    -0.000004    
-14.380555    90.283928    221.504181    14.947584    5.074440    9.425079    0.600908    5.475070    7.328079    3.004516    5.467885    7.098861    2.961324    -3.356963    -4.376296    2.961326    -3.356965    -4.376297    -4.632787    -1.273847    -0.096256    -54.499588    15.279157    -22.169796    -11.922253    4.995502    -137.854156    9.276446    4.332253    25.478552    47.448208    38.866428    -34.355026    -35.000008    0.000002    0.000001    -0.000000    0.000000    -0.000000    0.000000    9.999994    -0.000003    -0.000000    0.000000    -0.000000    -0.000000    0.000000    -0.000000    -0.000000    0.000000    -0.000000    -0.000000    0.000000    -0.000000    -0.000000    0.000000    -0.000000    -0.000000    0.000000    -0.000000    -0.000000    0.000000    -0.000000    -0.000000    0.000000    -0.000000    -0.000021    -9.999997    -0.000005    -0.000000    0.000000    -0.000000    -0.000000    0.000000    -0.000000    -3.639246    -0.261753    2.590707    -2.843148    -25.870895    38.139782    -13.927613    -14.781654    43.855545    -6.468673    2.240252    -19.082750    -47.448204    38.866432    34.355019    35.000000    -0.000004    0.000011    -0.000000    0.000000    -0.000000    -0.000003    10.000002    -0.000001    -0.000000    0.000000    -0.000000    -0.000000    0.000000    -0.000000    -0.000000    0.000000    -0.000000    -0.000000    0.000000    -0.000000    -0.000000    0.000000    -0.000000    -0.000000    0.000000    -0.000000    -0.000000    0.000000    -0.000000    -0.000000    0.000000    -0.000000    -0.000004    -9.999996    -0.000005    -0.000000    0.000000    -0.000000    -0.000000    0.000000    -0.000000    2.814732    -18.872396    -2.375692    -0.000006    27.583895    0.000001    -23.939911    -8.259765    0.761055    0.000000    -0.980696    0.000001    -23.308943    -27.004929    -11.285845    0.000001    58.606712    -0.000000    9.726846    -31.282124    -21.552999    -0.000001    -1.037913    0.000005    
-14.440012    90.273834    221.504898    14.826077    5.038107    9.512962    0.596771    5.480415    7.296453    2.983830    5.473323    7.068586    3.010818    -3.311189    -4.356714    3.010813    -3.311188    -4.356719    -4.626712    -1.271354    -0.081031    -54.575241    15.357888    -22.135763    -11.906004    4.968212    -137.867233    9.231688    4.316211    25.506405    47.448204    38.866440    -34.355022    -34.999996    0.000003    0.000003    -0.000000    0.000000    -0.000000    0.000002    10.000008    0.000011    -0.000000    0.000000    -0.000000    -0.000000    0.000000    -0.000000    -0.000000    0.000000    -0.000000    -0.000000    0.000000    -0.000000    -0.000000    0.000000    -0.000000    -0.000000    0.000000    -0.000000    -0.000000    0.000000    -0.000000    -0.000000    0.000000    -0.000000    0.000004    -9.999993    0.000011    -0.000000    0.000000    -0.000000    -0.000000    0.000000    -0.000000    -3.589991    -0.175314    2.522948    -2.506699    -25.911552    38.294308    -14.051957    -14.732701    44.314548    -6.686352    2.320142    -19.085302    -47.448219    38.866428    34.355030    35.000004    -0.000003    0.000001    -0.000000    0.000000    -0.000000    -0.000004    9.999992    0.000009    -0.000000    0.000000    -0.000000    -0.000000    0.000000    -0.000000    -0.000000    0.000000    -0.000000    -0.000000    0.000000    -0.000000    -0.000000    0.000000    -0.000000    -0.000000    0.000000    -0.000000    -0.000000    0.000000    -0.000000    -0.000000    0.000000    -0.000000    0.000001    -10.000007    0.000008    -0.000000    0.000000    -0.000000    -0.000000    0.000000    -0.000000    2.899417    -18.843359    -2.364902    0.000001    27.636080    -0.000002    -23.914566    -8.404131    0.456639    -0.000000    -1.007065    0.000001    -23.202332    -26.952143    -11.322930    0.000000    58.635754    -0.000001    9.862185    -31.282694    -21.406031    -0.000000    -1.042127    0.000001    
-14.500098    90.261162    221.507950    14.701622    5.002716    9.599396    0.591918    5.486558    7.264046    2.959558    5.479574    7.037774    3.057606    -3.272504    -4.344537    3.057605    -3.272507    -4.344545    -4.621484    -1.265942    -0.064975    -54.652241    15.437541    -22.100554    -11.891388    4.943309    -137.879669    9.184296    4.298508    25.532698    47.448204    38.866421    -34.355034    -34.999996    -0.000003    0.000001    -0.000000    0.000000    -0.000000    -0.000000    10.000001    0.000001    -0.000000    0.000000    -0.000000    -0.000000    0.000000    -0.000000    -0.000000    0.000000    -0.000000    -0.000000    0.000000    -0.000000    -0.000000    0.000000    -0.000000    -0.000000    0.000000    -0.000000    -0.000000    0.000000    -0.000000    -0.000000    0.000000    -0.000000    -0.000011    -10.000010    -0.000011    -0.000000    0.000000    -0.000000    -0.000000    0.000000    -0.000000    -3.548597    -0.097531    2.450227    -2.176799    -25.941217    38.432796    -14.124262    -14.688800    44.794411    -6.881973    2.393690    -19.100311    -47.448212    38.866428    34.355038    34.999996    -0.000002    -0.000002    -0.000000    0.000000    -0.000000    -0.000000    9.999997    0.000003    -0.000000    0.000000    -0.000000    -0.000000    0.000000    -0.000000    -0.000000    0.000000    -0.000000    -0.000000    0.000000    -0.000000    -0.000000    0.000000    -0.000000    -0.000000    0.000000    -0.000000    -0.000000    0.000000    -0.000000    -0.000000    0.000000    -0.000000    0.000004    -9.999998    0.000005    -0.000000    0.000000    -0.000000    -0.000000    0.000000    -0.000000    2.987153    -18.818045    -2.351946    0.000001    27.697441    0.000000    -23.905783    -8.560941    0.150933    0.000000    -1.025049    -0.000001    -23.094852    -26.897163    -11.346867    -0.000000    58.658600    -0.000000    9.972782    -31.274282    -21.225746    -0.000001    -1.042159    0.000005    
